<svg width="24" height="25" viewBox="0 0 24 25" fill="none" xmlns="http://www.w3.org/2000/svg">
<path fill-rule="evenodd" clip-rule="evenodd" d="M12 18.1918C11.337 18.1918 10.8 17.6538 10.8 16.9918C10.8 16.3288 11.337 15.7918 12 15.7918C12.663 15.7918 13.2 16.3288 13.2 16.9918C13.2 17.6538 12.663 18.1918 12 18.1918ZM11 8.20876C11 7.65576 11.448 7.20876 12 7.20876C12.552 7.20876 13 7.65576 13 8.20876V13.2088C13 13.7608 12.552 14.2088 12 14.2088C11.448 14.2088 11 13.7608 11 13.2088V8.20876ZM12 1.49976C5.925 1.49976 1 6.42476 1 12.4998C1 18.5748 5.925 23.4998 12 23.4998C18.075 23.4998 23 18.5748 23 12.4998C23 6.42476 18.075 1.49976 12 1.49976Z" fill="#E1E8EA"/>
</svg>
