<svg width="80" height="80" viewBox="0 0 80 80" fill="none" xmlns="http://www.w3.org/2000/svg">
<g filter="url(#filter0_b_4021_417)">
<circle cx="39.8516" cy="40.3911" r="39.5" fill="white" fill-opacity="0.6"/>
<circle cx="39.8516" cy="40.3911" r="39" stroke="white"/>
</g>
<g clip-path="url(#clip0_4021_417)">
<path d="M57.5156 40.8618C57.5156 52.6157 50.1943 59.3892 40.6816 59.3892C31.0693 59.3892 23.7979 52.5659 23.7979 40.8618C23.7979 29.1079 31.0693 22.3345 40.6816 22.3345C50.1943 22.3345 57.5156 29.1079 57.5156 40.8618ZM49.8955 40.8618C49.8955 33.1421 46.2598 28.9585 40.6816 28.9585C35.1035 28.9585 31.418 33.1421 31.418 40.8618C31.418 48.5815 35.1035 52.7651 40.6816 52.7651C46.2598 52.7651 49.8955 48.5815 49.8955 40.8618Z" fill="#C0C7C9"/>
</g>
<defs>
<filter id="filter0_b_4021_417" x="-39.6484" y="-39.1089" width="159" height="159" filterUnits="userSpaceOnUse" color-interpolation-filters="sRGB">
<feFlood flood-opacity="0" result="BackgroundImageFix"/>
<feGaussianBlur in="BackgroundImageFix" stdDeviation="20"/>
<feComposite in2="SourceAlpha" operator="in" result="effect1_backgroundBlur_4021_417"/>
<feBlend mode="normal" in="SourceGraphic" in2="effect1_backgroundBlur_4021_417" result="shape"/>
</filter>
<clipPath id="clip0_4021_417">
<rect width="48" height="48" fill="white" transform="translate(16.3516 15.8911)"/>
</clipPath>
</defs>
</svg>
