<svg width="80" height="80" viewBox="0 0 80 80" fill="none" xmlns="http://www.w3.org/2000/svg">
<g filter="url(#filter0_b_4021_438)">
<circle cx="39.8516" cy="40.3911" r="39.5" fill="white" fill-opacity="0.6"/>
<circle cx="39.8516" cy="40.3911" r="39" stroke="white"/>
</g>
<g clip-path="url(#clip0_4021_438)">
<path d="M38.042 46.3901H44.4668L47.2061 49.9263C48.9243 47.9092 49.8955 44.8711 49.8955 40.8618C49.8955 33.1421 46.2598 28.9585 40.6816 28.9585C35.1035 28.9585 31.418 33.1421 31.418 40.8618C31.418 48.5815 35.1035 52.7651 40.6816 52.7651C41.4038 52.7651 42.1011 52.6904 42.7734 52.5659L38.042 46.3901ZM57.5156 40.8618C57.5156 47.2866 55.3242 52.2422 51.7881 55.355L56.918 61.8794H49.8955L47.0068 58.2437C45.0645 59.0156 42.9229 59.3892 40.6816 59.3892C31.0693 59.3892 23.7979 52.5659 23.7979 40.8618C23.7979 29.1079 31.0693 22.3345 40.6816 22.3345C50.1943 22.3345 57.5156 29.1079 57.5156 40.8618Z" fill="#C0C7C9"/>
</g>
<defs>
<filter id="filter0_b_4021_438" x="-39.6484" y="-39.1089" width="159" height="159" filterUnits="userSpaceOnUse" color-interpolation-filters="sRGB">
<feFlood flood-opacity="0" result="BackgroundImageFix"/>
<feGaussianBlur in="BackgroundImageFix" stdDeviation="20"/>
<feComposite in2="SourceAlpha" operator="in" result="effect1_backgroundBlur_4021_438"/>
<feBlend mode="normal" in="SourceGraphic" in2="effect1_backgroundBlur_4021_438" result="shape"/>
</filter>
<clipPath id="clip0_4021_438">
<rect width="48" height="48" fill="white" transform="translate(16.3516 15.8911)"/>
</clipPath>
</defs>
</svg>
