<svg width="78" height="79" viewBox="0 0 78 79" fill="none" xmlns="http://www.w3.org/2000/svg">
<g filter="url(#filter0_d_2752_5476)">
<rect x="15" y="13.8103" width="48" height="48" rx="24" fill="#040F11" shape-rendering="crispEdges"/>
<path d="M51.2499 33.4604C51.206 34.9837 50.5797 36.432 49.4999 37.5073L45.6991 41.3103C45.1455 41.8669 44.4871 42.3081 43.7618 42.6085C43.0366 42.9089 42.2589 43.0625 41.474 43.0603H41.4685C40.6701 43.0597 39.8799 42.8992 39.1446 42.5881C38.4093 42.277 37.7438 41.8217 37.1874 41.2491C36.631 40.6765 36.195 39.9982 35.9052 39.2543C35.6153 38.5103 35.4775 37.7159 35.4999 36.9178C35.5064 36.6857 35.6049 36.4658 35.7736 36.3063C35.9423 36.1468 36.1674 36.0609 36.3995 36.0674C36.6316 36.0739 36.8515 36.1724 37.011 36.3411C37.1705 36.5098 37.2564 36.7349 37.2499 36.967C37.234 37.5313 37.3313 38.0931 37.5362 38.6191C37.741 39.1451 38.0492 39.6248 38.4426 40.0297C38.836 40.4346 39.3065 40.7565 39.8264 40.9765C40.3463 41.1964 40.9051 41.3099 41.4696 41.3103C42.0245 41.3117 42.5742 41.2031 43.0869 40.9908C43.5996 40.7785 44.0652 40.4666 44.4566 40.0733L48.2574 36.2725C49.0416 35.4784 49.4797 34.4064 49.4763 33.2904C49.4728 32.1744 49.0279 31.1051 48.2388 30.316C47.4496 29.5268 46.3803 29.0819 45.2643 29.0785C44.1483 29.075 43.0763 29.5131 42.2822 30.2973L41.0791 31.5004C40.9137 31.6576 40.6934 31.7439 40.4652 31.741C40.2371 31.7381 40.0191 31.6462 39.8577 31.4848C39.6964 31.3235 39.6044 31.1055 39.6015 30.8773C39.5986 30.6491 39.6849 30.4288 39.8421 30.2634L41.0452 29.0603C41.6003 28.505 42.2593 28.0645 42.9846 27.764C43.71 27.4635 44.4874 27.3088 45.2725 27.3088C46.0577 27.3088 46.8351 27.4635 47.5605 27.764C48.2858 28.0645 48.9448 28.505 49.4999 29.0603C50.0748 29.6366 50.5265 30.324 50.8273 31.0804C51.1282 31.8369 51.2719 32.6467 51.2499 33.4604ZM36.9218 44.1168L35.7186 45.32C35.3262 45.715 34.8592 46.0281 34.3447 46.241C33.8302 46.4539 33.2786 46.5625 32.7218 46.5603C31.8865 46.5596 31.0701 46.3114 30.3759 45.8469C29.6816 45.3825 29.1406 44.7227 28.8211 43.9509C28.5017 43.179 28.4182 42.3299 28.5812 41.5106C28.7442 40.6914 29.1464 39.9389 29.7369 39.3481L33.5311 35.5473C34.1288 34.9466 34.8932 34.5394 35.7252 34.3786C36.5572 34.2179 37.4183 34.311 38.1967 34.646C38.9751 34.9809 39.6347 35.5422 40.09 36.2568C40.5454 36.9715 40.7753 37.8066 40.7499 38.6536C40.7434 38.8856 40.8293 39.1108 40.9888 39.2795C41.1483 39.4482 41.3682 39.5466 41.6003 39.5532C41.8323 39.5597 42.0575 39.4738 42.2262 39.3143C42.3949 39.1548 42.4934 38.9348 42.4999 38.7028C42.5209 37.8903 42.3766 37.082 42.0758 36.3269C41.775 35.5718 41.3239 34.8857 40.7499 34.3103C39.629 33.1899 38.109 32.5605 36.5242 32.5605C34.9393 32.5605 33.4194 33.1899 32.2985 34.3103L28.4999 38.1111C27.6645 38.9461 27.0954 40.01 26.8645 41.1684C26.6336 42.3268 26.7513 43.5276 27.2027 44.6191C27.654 45.7106 28.4188 46.6438 29.4004 47.3008C30.3819 47.9578 31.5362 48.3091 32.7174 48.3103C33.5026 48.3125 34.2804 48.159 35.0058 47.8587C35.7313 47.5583 36.3899 47.117 36.9436 46.5603L38.1468 45.3572C38.2884 45.1904 38.3623 44.9766 38.3541 44.7579C38.3459 44.5393 38.256 44.3317 38.1023 44.176C37.9485 44.0203 37.742 43.9279 37.5235 43.917C37.305 43.906 37.0903 43.9773 36.9218 44.1168Z" fill="white"/>
</g>
<defs>
<filter id="filter0_d_2752_5476" x="0" y="0.810303" width="78" height="78" filterUnits="userSpaceOnUse" color-interpolation-filters="sRGB">
<feFlood flood-opacity="0" result="BackgroundImageFix"/>
<feColorMatrix in="SourceAlpha" type="matrix" values="0 0 0 0 0 0 0 0 0 0 0 0 0 0 0 0 0 0 127 0" result="hardAlpha"/>
<feOffset dy="2"/>
<feGaussianBlur stdDeviation="7.5"/>
<feComposite in2="hardAlpha" operator="out"/>
<feColorMatrix type="matrix" values="0 0 0 0 0 0 0 0 0 0 0 0 0 0 0 0 0 0 0.15 0"/>
<feBlend mode="normal" in2="BackgroundImageFix" result="effect1_dropShadow_2752_5476"/>
<feBlend mode="normal" in="SourceGraphic" in2="effect1_dropShadow_2752_5476" result="shape"/>
</filter>
</defs>
</svg>
