<svg width="24" height="25" viewBox="0 0 24 25" fill="none" xmlns="http://www.w3.org/2000/svg">
<path d="M0 4.5C0 2.29086 1.79086 0.5 4 0.5H20C22.2091 0.5 24 2.29086 24 4.5V20.5C24 22.7091 22.2091 24.5 20 24.5H4C1.79086 24.5 0 22.7091 0 20.5V4.5Z" fill="#DBEFF2"/>
<path d="M10.5952 17.1667C10.3045 17.1667 10.0138 17.0731 9.82007 16.7925L5.36333 12.4883C4.87889 12.0205 4.87889 11.3655 5.36333 10.8977C5.84776 10.4299 6.52596 10.4299 7.01039 10.8977L10.5952 14.3597L16.9896 8.18425C17.474 7.71641 18.1523 7.71641 18.6366 8.18425C19.1211 8.65209 19.1211 9.30706 18.6366 9.7749L11.4671 16.6989C11.1765 17.0731 10.8858 17.1667 10.5952 17.1667Z" fill="#55A7BA"/>
</svg>
