<svg width="40" height="41" viewBox="0 0 40 41" fill="none" xmlns="http://www.w3.org/2000/svg">
<path d="M11.5772 31.1329C10.9669 31.7432 9.97748 31.7432 9.36721 31.1329C8.75693 30.5226 8.75693 29.5332 9.36721 28.9229L17.7901 20.5L9.36721 12.0771C8.75693 11.4668 8.75693 10.4774 9.36721 9.86709C9.97748 9.25681 10.9669 9.25681 11.5772 9.86709L20.0001 18.29L28.423 9.86708C29.0333 9.25681 30.0228 9.25681 30.633 9.86709C31.2433 10.4774 31.2433 11.4668 30.633 12.0771L22.2101 20.5L30.633 28.9229C31.2433 29.5332 31.2433 30.5226 30.633 31.1329C30.0228 31.7432 29.0333 31.7432 28.423 31.1329L20.0001 22.71L11.5772 31.1329Z" fill="white"/>
</svg>
