<svg width="28" height="28" viewBox="0 0 28 28" fill="none" xmlns="http://www.w3.org/2000/svg">
<path d="M26.2499 9.65014C26.206 11.1734 25.5797 12.6217 24.4999 13.697L20.6991 17.5C20.1455 18.0566 19.4871 18.4978 18.7618 18.7982C18.0366 19.0986 17.2589 19.2522 16.474 19.25H16.4685C15.6701 19.2494 14.8799 19.0889 14.1446 18.7778C13.4093 18.4667 12.7438 18.0114 12.1874 17.4388C11.631 16.8662 11.195 16.1879 10.9052 15.444C10.6153 14.7 10.4775 13.9056 10.4999 13.1075C10.5064 12.8754 10.6049 12.6555 10.7736 12.496C10.9423 12.3365 11.1674 12.2506 11.3995 12.2571C11.6316 12.2636 11.8515 12.3621 12.011 12.5308C12.1705 12.6995 12.2564 12.9246 12.2499 13.1567C12.234 13.721 12.3313 14.2828 12.5362 14.8088C12.741 15.3348 13.0492 15.8145 13.4426 16.2194C13.836 16.6243 14.3065 16.9462 14.8264 17.1662C15.3463 17.3861 15.9051 17.4996 16.4696 17.5C17.0245 17.5014 17.5742 17.3928 18.0869 17.1805C18.5996 16.9682 19.0652 16.6563 19.4566 16.263L23.2574 12.4622C24.0416 11.6681 24.4797 10.5961 24.4763 9.48007C24.4728 8.36407 24.0279 7.29478 23.2388 6.50565C22.4496 5.71652 21.3803 5.27165 20.2643 5.26815C19.1483 5.26466 18.0763 5.70284 17.2822 6.48701L16.0791 7.69014C15.9137 7.84731 15.6934 7.93363 15.4652 7.93071C15.2371 7.92779 15.0191 7.83585 14.8577 7.6745C14.6964 7.51315 14.6044 7.29515 14.6015 7.06698C14.5986 6.83882 14.6849 6.61854 14.8421 6.45311L16.0452 5.24998C16.6003 4.69472 17.2593 4.25425 17.9846 3.95373C18.71 3.65321 19.4874 3.49854 20.2725 3.49854C21.0577 3.49854 21.8351 3.65321 22.5605 3.95373C23.2858 4.25425 23.9448 4.69472 24.4999 5.24998C25.0748 5.82634 25.5265 6.51367 25.8273 7.27012C26.1282 8.02658 26.2719 8.83635 26.2499 9.65014ZM11.9218 20.3065L10.7186 21.5097C10.3262 21.9047 9.85921 22.2178 9.34473 22.4307C8.83024 22.6436 8.27857 22.7522 7.72177 22.75C6.88647 22.7493 6.07012 22.5011 5.37585 22.0366C4.68159 21.5722 4.14056 20.9124 3.82114 20.1406C3.50172 19.3687 3.41824 18.5196 3.58123 17.7003C3.74423 16.8811 4.1464 16.1286 4.73692 15.5378L8.53114 11.737C9.12875 11.1362 9.8932 10.7291 10.7252 10.5683C11.5572 10.4076 12.4183 10.5007 13.1967 10.8357C13.9751 11.1706 14.6347 11.7319 15.09 12.4465C15.5454 13.1612 15.7753 13.9963 15.7499 14.8433C15.7434 15.0753 15.8293 15.3005 15.9888 15.4692C16.1483 15.6379 16.3682 15.7363 16.6003 15.7429C16.8323 15.7494 17.0575 15.6635 17.2262 15.504C17.3949 15.3445 17.4934 15.1245 17.4999 14.8925C17.5209 14.08 17.3766 13.2717 17.0758 12.5166C16.775 11.7615 16.3239 11.0754 15.7499 10.5C14.629 9.37957 13.109 8.75018 11.5242 8.75018C9.93935 8.75018 8.41938 9.37957 7.29849 10.5L3.49989 14.3008C2.66452 15.1358 2.09542 16.1997 1.86453 17.3581C1.63363 18.5165 1.7513 19.7173 2.20265 20.8088C2.65401 21.9003 3.41879 22.8335 4.40037 23.4905C5.38194 24.1475 6.53624 24.4988 7.71739 24.5C8.50256 24.5022 9.28038 24.3487 10.0058 24.0484C10.7313 23.748 11.3899 23.3067 11.9436 22.75L13.1468 21.5469C13.2884 21.3801 13.3623 21.1663 13.3541 20.9476C13.3459 20.729 13.256 20.5214 13.1023 20.3657C12.9485 20.21 12.742 20.1176 12.5235 20.1067C12.305 20.0957 12.0903 20.167 11.9218 20.3065Z" fill="white"/>
</svg>
