<svg width="49" height="49" viewBox="0 0 49 49" fill="none" xmlns="http://www.w3.org/2000/svg">
<path d="M14.8127 26.8251C14.0178 25.4475 12.2562 24.9752 10.8786 25.771C9.501 26.5659 9.02872 28.3275 9.82456 29.7051L14.6246 38.0187C18.6009 44.9057 27.4079 47.2664 34.2949 43.2891C41.182 39.3128 43.5426 30.5057 39.5653 23.6187L35.7253 16.9678C34.9305 15.5902 33.1688 15.1179 31.7912 15.9137C30.4136 16.7086 29.9423 18.4702 30.7372 19.8478L29.7772 18.1851C28.9823 16.8075 27.2207 16.3352 25.8431 17.131C24.4655 17.9259 23.9932 19.6875 24.7891 21.0651L23.8291 19.4024C23.0342 18.0248 21.2726 17.5525 19.895 18.3483C18.5174 19.1432 18.045 20.9048 18.8408 22.2824L12.1208 10.6433C11.326 9.26573 9.56441 8.79341 8.18681 9.58925C6.80921 10.3841 6.33686 12.1457 7.1327 13.5233L18.1727 32.6456L14.8127 26.8251Z" stroke="#3E4547" stroke-width="2" stroke-miterlimit="10" stroke-linecap="round" stroke-linejoin="round"/>
<path d="M15.5781 6.24269C23.5125 2.19245 33.4726 3.48749 40.1119 10.1268" stroke="#337287" stroke-width="2" stroke-miterlimit="10" stroke-linecap="round" stroke-linejoin="round"/>
<path d="M15.5781 2.98145V6.82144L19.4181 7.78144" stroke="#337287" stroke-width="2" stroke-miterlimit="10" stroke-linecap="round" stroke-linejoin="round"/>
</svg>
