<svg width="32" height="33" viewBox="0 0 32 33" fill="none" xmlns="http://www.w3.org/2000/svg">
<rect width="32" height="32" transform="translate(0 0.5)" fill="#3A8BA0"/>
<mask id="mask0_2289_12313" style="mask-type:alpha" maskUnits="userSpaceOnUse" x="4" y="4" width="24" height="25">
<rect x="4" y="4.5" width="24" height="24" fill="#D9D9D9"/>
</mask>
<g mask="url(#mask0_2289_12313)">
<path d="M10.0537 23.5H12.25C12.4625 23.5 12.6407 23.5719 12.7845 23.7158C12.9282 23.8596 13 24.0378 13 24.2502C13 24.4629 12.9282 24.641 12.7845 24.7845C12.6407 24.9282 12.4625 25 12.25 25H8.404C8.14783 25 7.93317 24.9133 7.76 24.74C7.58667 24.5668 7.5 24.3522 7.5 24.096V20.25C7.5 20.0375 7.57192 19.8593 7.71575 19.7155C7.85958 19.5718 8.03775 19.5 8.25025 19.5C8.46292 19.5 8.641 19.5718 8.7845 19.7155C8.92817 19.8593 9 20.0375 9 20.25V22.4462L11.823 19.623C11.9615 19.4847 12.1356 19.4138 12.3453 19.4105C12.5549 19.4073 12.7322 19.4782 12.877 19.623C13.0218 19.7678 13.0942 19.9435 13.0942 20.15C13.0942 20.3563 13.0218 20.532 12.877 20.677L10.0537 23.5ZM21.9462 23.5L19.123 20.677C18.9847 20.5385 18.9138 20.3644 18.9105 20.1547C18.9073 19.9451 18.9782 19.7678 19.123 19.623C19.2678 19.4782 19.4435 19.4058 19.65 19.4058C19.8563 19.4058 20.032 19.4782 20.177 19.623L23 22.4462V20.25C23 20.0375 23.0719 19.8593 23.2158 19.7155C23.3596 19.5718 23.5378 19.5 23.7502 19.5C23.9629 19.5 24.141 19.5718 24.2845 19.7155C24.4282 19.8593 24.5 20.0375 24.5 20.25V24.096C24.5 24.3522 24.4133 24.5668 24.24 24.74C24.0668 24.9133 23.8522 25 23.596 25H19.75C19.5375 25 19.3593 24.9281 19.2155 24.7843C19.0718 24.6404 19 24.4622 19 24.2498C19 24.0371 19.0718 23.859 19.2155 23.7155C19.3593 23.5718 19.5375 23.5 19.75 23.5H21.9462ZM9 10.5538V12.75C9 12.9625 8.92808 13.1407 8.78425 13.2845C8.64042 13.4282 8.46225 13.5 8.24975 13.5C8.03708 13.5 7.859 13.4282 7.7155 13.2845C7.57183 13.1407 7.5 12.9625 7.5 12.75V8.904C7.5 8.64783 7.58667 8.43317 7.76 8.26C7.93317 8.08667 8.14783 8 8.404 8H12.25C12.4625 8 12.6407 8.07192 12.7845 8.21575C12.9282 8.35958 13 8.53775 13 8.75025C13 8.96292 12.9282 9.141 12.7845 9.2845C12.6407 9.42817 12.4625 9.5 12.25 9.5H10.0537L12.877 12.323C13.0153 12.4615 13.0862 12.6356 13.0895 12.8453C13.0927 13.0549 13.0218 13.2322 12.877 13.377C12.7322 13.5218 12.5565 13.5943 12.35 13.5943C12.1437 13.5943 11.968 13.5218 11.823 13.377L9 10.5538ZM23 10.5538L20.177 13.377C20.0385 13.5153 19.8644 13.5862 19.6547 13.5895C19.4451 13.5927 19.2678 13.5218 19.123 13.377C18.9782 13.2322 18.9057 13.0565 18.9057 12.85C18.9057 12.6437 18.9782 12.468 19.123 12.323L21.9462 9.5H19.75C19.5375 9.5 19.3593 9.42808 19.2155 9.28425C19.0718 9.14042 19 8.96225 19 8.74975C19 8.53708 19.0718 8.359 19.2155 8.2155C19.3593 8.07183 19.5375 8 19.75 8H23.596C23.8522 8 24.0668 8.08667 24.24 8.26C24.4133 8.43317 24.5 8.64783 24.5 8.904V12.75C24.5 12.9625 24.4281 13.1407 24.2843 13.2845C24.1404 13.4282 23.9622 13.5 23.7498 13.5C23.5371 13.5 23.359 13.4282 23.2155 13.2845C23.0718 13.1407 23 12.9625 23 12.75V10.5538Z" fill="white"/>
</g>
</svg>
