<svg width="85" height="63" viewBox="0 0 85 63" fill="none" xmlns="http://www.w3.org/2000/svg">
<g filter="url(#filter0_d_2440_19836)">
<path d="M22.3179 18C22.3179 12.4772 26.795 8 32.3179 8H64.3179C69.8407 8 74.3179 12.4772 74.3179 18V32C74.3179 37.5228 69.8407 42 64.3179 42H32.3179C26.795 42 22.3179 37.5228 22.3179 32V18Z" fill="white"/>
<path d="M35.273 20.1016H42.9429V21.4004H39.8667V30H38.3628V21.4004H35.273V20.1016ZM46.3303 30.1504C45.6102 30.1504 44.9836 29.9932 44.4504 29.6787C43.9217 29.3643 43.5138 28.9199 43.2267 28.3457C42.9442 27.7715 42.8029 27.1016 42.8029 26.3359C42.8029 25.5794 42.9442 24.9095 43.2267 24.3262C43.5138 23.7428 43.9172 23.2894 44.4367 22.9658C44.9562 22.6423 45.5555 22.4805 46.2346 22.4805C46.8316 22.4805 47.3784 22.6104 47.8752 22.8701C48.3719 23.1299 48.7707 23.54 49.0715 24.1006C49.3768 24.6566 49.5295 25.3607 49.5295 26.2129V26.7324H44.2521C44.2658 27.1927 44.3592 27.5915 44.5324 27.9287C44.7101 28.2614 44.954 28.5143 45.2638 28.6875C45.5737 28.8607 45.9338 28.9473 46.3439 28.9473C46.7404 28.9473 47.0754 28.8743 47.3488 28.7285C47.6222 28.5781 47.825 28.3822 47.9572 28.1406H49.4338C49.3244 28.5417 49.1284 28.8949 48.8459 29.2002C48.5633 29.501 48.2056 29.7357 47.7726 29.9043C47.3443 30.0684 46.8635 30.1504 46.3303 30.1504ZM48.0939 25.6387C48.0939 25.2604 48.0165 24.9232 47.8615 24.627C47.7111 24.3307 47.4969 24.1006 47.2189 23.9365C46.9409 23.7679 46.6174 23.6836 46.2482 23.6836C45.87 23.6836 45.5327 23.7725 45.2365 23.9502C44.9448 24.1234 44.7147 24.3604 44.5461 24.6611C44.3775 24.9574 44.2818 25.2832 44.259 25.6387H48.0939ZM53.45 25.4609L55.0906 22.5762H56.6903L54.3797 26.2812L56.7039 30H55.118L53.45 27.2246L51.7957 30H50.1961L52.493 26.2812L50.2098 22.5762H51.8231L53.45 25.4609ZM61.3491 23.7383H59.8315V27.8125C59.8315 28.1908 59.909 28.4505 60.0639 28.5918C60.2234 28.7285 60.4422 28.8014 60.7202 28.8105C60.8478 28.8105 61.0483 28.8014 61.3217 28.7832C61.3491 28.7741 61.3947 28.7695 61.4585 28.7695V30.041C61.185 30.0775 60.8797 30.0957 60.5424 30.0957C60.146 30.0957 59.7837 30.0228 59.4555 29.877C59.1274 29.7311 58.8654 29.5101 58.6694 29.2139C58.4734 28.9131 58.3777 28.5462 58.3823 28.1133V23.7383H57.2885V22.5762H58.3823V20.7988H59.8315V22.5762H61.3491V23.7383Z" fill="#3A8BA0"/>
<path d="M50.928 43.3L43.712 49.796C42.951 50.481 41.797 50.482 41.036 49.797L34.139 43.59C33.003 42.567 31.529 42.001 30 42H54.318C53.066 42 51.859 42.463 50.928 43.3Z" fill="white"/>
</g>
<defs>
<filter id="filter0_d_2440_19836" x="0" y="0" width="84.3179" height="62.3103" filterUnits="userSpaceOnUse" color-interpolation-filters="sRGB">
<feFlood flood-opacity="0" result="BackgroundImageFix"/>
<feColorMatrix in="SourceAlpha" type="matrix" values="0 0 0 0 0 0 0 0 0 0 0 0 0 0 0 0 0 0 127 0" result="hardAlpha"/>
<feOffset dy="2"/>
<feGaussianBlur stdDeviation="5"/>
<feComposite in2="hardAlpha" operator="out"/>
<feColorMatrix type="matrix" values="0 0 0 0 0 0 0 0 0 0 0 0 0 0 0 0 0 0 0.1 0"/>
<feBlend mode="normal" in2="BackgroundImageFix" result="effect1_dropShadow_2440_19836"/>
<feBlend mode="normal" in="SourceGraphic" in2="effect1_dropShadow_2440_19836" result="shape"/>
</filter>
</defs>
</svg>
