<svg xmlns="http://www.w3.org/2000/svg" width="813" height="429" viewBox="0 0 813 429" fill="none">
  <g filter="url(#filter0_bd_2293_3300)">
    <path d="M398.897 201.013C398.893 201.017 398.788 201.011 398.594 200.983C398.804 200.995 398.901 201.008 398.897 201.013Z" fill="white"/>
    <path d="M380.151 172.395C380.187 172.272 380.211 172.209 380.213 172.208C380.216 172.207 380.198 172.268 380.151 172.395Z" fill="white"/>
    <path d="M496.259 235.357C496.259 235.358 496.238 235.371 496.197 235.395C496.239 235.368 496.259 235.356 496.259 235.357Z" fill="white"/>
    <path d="M503.549 223.47C503.503 223.553 503.479 223.599 503.479 223.602C503.479 223.603 503.486 223.592 503.499 223.567C503.51 223.545 503.527 223.513 503.549 223.47Z" fill="white"/>
    <path d="M397.089 271.49C397.075 271.496 397.143 271.312 397.335 270.917C397.199 271.287 397.103 271.484 397.089 271.49Z" fill="white"/>
    <path fill-rule="evenodd" clip-rule="evenodd" d="M798.852 13.8911H14.8516V413.891H798.852V13.8911ZM171.119 225.503C178.946 221.138 185.709 216.808 190.932 213.239C173.167 242.441 156.728 273.045 144.895 304.44C142.254 311.448 138.425 328.274 150.955 343.225C162.053 356.469 177.107 357.057 182.598 356.864C195.252 356.417 206.65 350.655 214.415 344.733C255.842 313.137 294.399 279.531 331.649 246.717C330.419 250.104 329.348 253.986 328.821 258.188C327.913 263.04 327.936 267.385 328.096 270.266C328.372 275.229 329.416 281.882 332.47 288.729C335.531 295.593 341.911 305.327 354.133 310.855C365.87 316.163 377.495 315.131 386.539 312.158C415.923 304.195 438.581 286.183 454.968 271.413C459.985 266.892 465.517 261.619 470.28 257.079C472.81 254.667 475.123 252.463 477.026 250.688C477.879 252.131 478.778 253.556 479.722 254.928C487.561 266.323 501.134 278.648 522.389 280.606C528.845 281.201 536.389 280.535 543.981 277.14C551.483 273.785 556.623 268.841 559.975 264.635C564.611 258.818 567.993 251.027 568.834 249.09C568.916 248.901 568.973 248.768 569.006 248.698C570.825 244.758 571.973 242.635 574.957 240.457L577.639 241.555C626.49 261.545 673.05 257.633 713.821 246.823C732.506 241.869 743.637 222.706 738.683 204.022C733.729 185.338 714.566 174.207 695.882 179.161C664.863 187.385 635.822 188.958 606.678 177.772C598.127 172.692 587.047 167.988 573.559 168.384C559.045 168.811 547.483 175.068 539.717 179.869C534.359 183.18 529.722 186.767 525.694 190.523C525.476 190.167 525.253 189.812 525.025 189.457C521.883 184.566 515.982 176.88 505.907 171.928C483.25 160.79 463.037 172.595 452.695 180.501C451.537 181.248 450.393 182.021 449.263 182.814C449.501 180.887 449.64 178.902 449.652 176.871C449.687 170.516 448.474 162.843 444.368 155.229C440.159 147.423 433.983 141.684 427.221 137.86C415.051 130.98 401.603 130.568 391.913 131.151C364.272 132.814 341.83 146.194 325.622 158.556C314.891 166.741 303.385 177.525 295.135 185.259C292.428 187.797 290.071 190.006 288.206 191.687C290.139 188.795 292.079 185.897 294.024 182.99L294.043 182.962L295.347 181.013C295.416 180.928 295.526 180.79 295.685 180.589C295.97 180.231 296.415 179.672 297.066 178.859C298.653 176.88 300.881 174.101 303.439 170.845C308.501 164.399 315.133 155.731 321.176 146.928C326.676 138.915 333.684 127.976 337.478 117.673C338.883 113.855 342.991 102.352 339.432 89.325C337.217 81.2139 332.069 72.8341 323.192 67.1339C315.054 61.9085 306.82 60.8911 301.38 60.8911C289.483 60.8911 278.795 64.0177 271.108 66.838C264.263 69.349 257.773 72.4198 253.536 74.4242C252.986 74.6845 252.474 74.9268 252.004 75.1475C231.792 84.6418 212.66 100.898 197.633 114.553C191.153 120.442 185.477 125.788 180.331 130.636C171.912 138.567 164.909 145.163 158.118 150.617L158.112 150.621L158.112 150.622C158.043 150.675 157.488 151.113 156.474 151.866C155.399 152.665 153.884 153.762 151.997 155.061C148.201 157.676 143.038 161.013 137.027 164.366C124.346 171.437 110.686 176.986 99.2228 178.181C79.997 180.185 66.0361 197.395 68.0402 216.621C70.0443 235.846 87.2545 249.807 106.48 247.803C131.758 245.168 155.161 234.402 171.119 225.503Z" fill="white"/>
    <path d="M503.969 223.702L503.838 223.63L503.972 223.684C503.972 223.684 503.972 223.684 503.972 223.684C503.972 223.686 503.972 223.689 503.971 223.691C503.97 223.695 503.97 223.699 503.969 223.702ZM503.834 223.627L503.549 223.47L503.834 223.627ZM294.458 183.24L294.458 183.24L295.75 181.31C295.758 181.3 295.767 181.289 295.776 181.277C295.846 181.19 295.945 181.066 296.076 180.901C296.362 180.542 296.805 179.984 297.456 179.172C299.043 177.193 301.273 174.412 303.832 171.154C308.897 164.705 315.537 156.026 321.588 147.211C327.09 139.196 334.13 128.213 337.947 117.846C339.358 114.013 343.517 102.381 339.915 89.1933C337.671 80.9791 332.456 72.4887 323.462 66.7132C315.218 61.4193 306.879 60.3911 301.38 60.3911C289.399 60.3911 278.648 63.539 270.935 66.3686C264.07 68.8874 257.563 71.966 253.328 73.9699L253.323 73.9723C252.772 74.2326 252.261 74.4746 251.792 74.695C231.505 84.2242 212.325 100.527 197.297 114.183C190.813 120.075 185.134 125.425 179.988 130.272C171.566 138.206 164.579 144.787 157.806 150.225C157.806 150.226 157.806 150.226 157.806 150.226C157.805 150.226 157.805 150.227 157.805 150.227L157.804 150.227L157.802 150.229L157.802 150.229C157.736 150.281 157.184 150.716 156.176 151.465C155.105 152.26 153.595 153.354 151.713 154.65C147.928 157.257 142.779 160.586 136.783 163.929C124.125 170.988 110.536 176.499 99.171 177.683C79.6705 179.716 65.5102 197.172 67.5429 216.673C69.5756 236.173 87.0317 250.333 106.532 248.301C131.909 245.655 155.381 234.852 171.363 225.939C178.29 222.077 184.384 218.241 189.319 214.934C172 243.56 156.011 273.529 144.427 304.263C141.761 311.338 137.87 328.389 150.572 343.547C161.82 356.97 177.074 357.559 182.616 357.363C195.405 356.912 206.9 351.093 214.719 345.13C255.633 313.924 293.748 280.761 330.558 248.344C329.586 251.308 328.768 254.597 328.326 258.111C327.412 263.009 327.435 267.392 327.597 270.294C327.875 275.3 328.928 282.015 332.013 288.932C335.105 295.865 341.557 305.716 353.927 311.31C365.801 316.68 377.555 315.635 386.682 312.637C416.178 304.641 438.903 286.565 455.303 271.785C460.326 267.258 465.863 261.98 470.624 257.441L470.625 257.441C472.958 255.217 475.104 253.172 476.914 251.477C477.676 252.746 478.476 253.999 479.31 255.211C487.205 266.687 500.896 279.128 522.343 281.104C528.868 281.705 536.5 281.033 544.185 277.596C551.778 274.201 556.978 269.197 560.366 264.947C565.043 259.078 568.445 251.24 569.289 249.296L569.292 249.289L569.362 249.13C569.407 249.025 569.44 248.951 569.46 248.907C571.224 245.086 572.318 243.068 575.029 241.027L577.449 242.018C626.435 262.063 673.115 258.133 713.95 247.306C732.901 242.282 744.191 222.845 739.166 203.894C734.141 184.943 714.705 173.653 695.754 178.678C664.81 186.882 635.896 188.439 606.896 177.32C598.305 172.221 587.142 167.485 573.544 167.884C558.895 168.315 547.24 174.631 539.454 179.443C534.265 182.65 529.746 186.116 525.799 189.744C525.683 189.558 525.565 189.373 525.446 189.187C522.28 184.259 516.318 176.488 506.128 171.479C483.208 160.213 462.783 172.164 452.407 180.092C451.558 180.64 450.717 181.201 449.884 181.774C450.048 180.176 450.142 178.54 450.152 176.874C450.187 170.454 448.962 162.694 444.809 154.992C440.55 147.094 434.302 141.29 427.467 137.425C415.171 130.473 401.605 130.067 391.883 130.652C364.097 132.324 341.559 145.771 325.318 158.158C314.567 166.359 303.047 177.157 294.802 184.886L294.793 184.894C293.411 186.19 292.121 187.399 290.942 188.495C292.051 186.837 293.163 185.176 294.276 183.513L294.439 183.269L294.439 183.268L294.458 183.24ZM15.3516 14.3911H798.352V413.391H15.3516V14.3911Z" stroke="white"/>
  </g>
  <defs>
    <filter id="filter0_bd_2293_3300" x="-30.1484" y="-31.1089" width="874" height="490" filterUnits="userSpaceOnUse" color-interpolation-filters="sRGB">
      <feFlood flood-opacity="0" result="BackgroundImageFix"/>
      <feGaussianBlur in="BackgroundImageFix" stdDeviation="22.5"/>
      <feComposite in2="SourceAlpha" operator="in" result="effect1_backgroundBlur_2293_3300"/>
      <feColorMatrix in="SourceAlpha" type="matrix" values="0 0 0 0 0 0 0 0 0 0 0 0 0 0 0 0 0 0 127 0" result="hardAlpha"/>
      <feOffset dy="1"/>
      <feGaussianBlur stdDeviation="7"/>
      <feComposite in2="hardAlpha" operator="out"/>
      <feColorMatrix type="matrix" values="0 0 0 0 0.227451 0 0 0 0 0.545098 0 0 0 0 0.627451 0 0 0 0.2 0"/>
      <feBlend mode="normal" in2="effect1_backgroundBlur_2293_3300" result="effect2_dropShadow_2293_3300"/>
      <feBlend mode="normal" in="SourceGraphic" in2="effect2_dropShadow_2293_3300" result="shape"/>
    </filter>
  </defs>
</svg>