<svg width="246" height="155" viewBox="0 0 246 155" fill="none" xmlns="http://www.w3.org/2000/svg">
<g filter="url(#filter0_d_2226_10188)">
<path d="M10.8574 8H235.857V143H10.8574V8Z" fill="#003984"/>
</g>
<path d="M67.7197 59V50.096H64.2757V49.2H72.1997V50.096H68.7557V59H67.7197ZM77.3968 51.58C77.9941 51.58 78.5168 51.6967 78.9648 51.93C79.4221 52.154 79.7768 52.4993 80.0288 52.966C80.2901 53.4327 80.4208 54.0207 80.4208 54.73V59H79.4268V54.828C79.4268 54.0533 79.2308 53.47 78.8388 53.078C78.4561 52.6767 77.9148 52.476 77.2148 52.476C76.6921 52.476 76.2348 52.5833 75.8428 52.798C75.4601 53.0033 75.1615 53.3067 74.9468 53.708C74.7415 54.1 74.6388 54.576 74.6388 55.136V59H73.6448V48.612H74.6388V53.666L74.4428 53.288C74.6761 52.756 75.0495 52.3407 75.5628 52.042C76.0761 51.734 76.6875 51.58 77.3968 51.58ZM86.2277 59.07C85.4624 59.07 84.7904 58.9113 84.2117 58.594C83.6331 58.2673 83.1804 57.824 82.8537 57.264C82.5271 56.6947 82.3637 56.046 82.3637 55.318C82.3637 54.59 82.5177 53.946 82.8257 53.386C83.1431 52.826 83.5724 52.3873 84.1137 52.07C84.6644 51.7433 85.2804 51.58 85.9617 51.58C86.6524 51.58 87.2637 51.7387 87.7957 52.056C88.3371 52.364 88.7617 52.8027 89.0697 53.372C89.3777 53.932 89.5317 54.5807 89.5317 55.318C89.5317 55.3647 89.5271 55.416 89.5177 55.472C89.5177 55.5187 89.5177 55.57 89.5177 55.626H83.1197V54.884H88.9857L88.5937 55.178C88.5937 54.646 88.4771 54.1747 88.2437 53.764C88.0197 53.344 87.7117 53.0173 87.3197 52.784C86.9277 52.5507 86.4751 52.434 85.9617 52.434C85.4577 52.434 85.0051 52.5507 84.6037 52.784C84.2024 53.0173 83.8897 53.344 83.6657 53.764C83.4417 54.184 83.3297 54.6647 83.3297 55.206V55.36C83.3297 55.92 83.4511 56.4147 83.6937 56.844C83.9457 57.264 84.2911 57.5953 84.7297 57.838C85.1777 58.0713 85.6864 58.188 86.2557 58.188C86.7037 58.188 87.1191 58.1087 87.5017 57.95C87.8937 57.7913 88.2297 57.5487 88.5097 57.222L89.0697 57.866C88.7431 58.258 88.3324 58.5567 87.8377 58.762C87.3524 58.9673 86.8157 59.07 86.2277 59.07ZM98.971 51.58C99.5683 51.58 100.091 51.6967 100.539 51.93C100.996 52.154 101.351 52.4993 101.603 52.966C101.864 53.4327 101.995 54.0207 101.995 54.73V59H101.001V54.828C101.001 54.0533 100.805 53.47 100.413 53.078C100.03 52.6767 99.489 52.476 98.789 52.476C98.2663 52.476 97.809 52.5833 97.417 52.798C97.0343 53.0033 96.7357 53.3067 96.521 53.708C96.3157 54.1 96.213 54.576 96.213 55.136V59H95.219V51.65H96.171V53.666L96.017 53.288C96.2503 52.756 96.6237 52.3407 97.137 52.042C97.6503 51.734 98.2617 51.58 98.971 51.58ZM107.802 59.07C107.037 59.07 106.365 58.9113 105.786 58.594C105.207 58.2673 104.755 57.824 104.428 57.264C104.101 56.6947 103.938 56.046 103.938 55.318C103.938 54.59 104.092 53.946 104.4 53.386C104.717 52.826 105.147 52.3873 105.688 52.07C106.239 51.7433 106.855 51.58 107.536 51.58C108.227 51.58 108.838 51.7387 109.37 52.056C109.911 52.364 110.336 52.8027 110.644 53.372C110.952 53.932 111.106 54.5807 111.106 55.318C111.106 55.3647 111.101 55.416 111.092 55.472C111.092 55.5187 111.092 55.57 111.092 55.626H104.694V54.884H110.56L110.168 55.178C110.168 54.646 110.051 54.1747 109.818 53.764C109.594 53.344 109.286 53.0173 108.894 52.784C108.502 52.5507 108.049 52.434 107.536 52.434C107.032 52.434 106.579 52.5507 106.178 52.784C105.777 53.0173 105.464 53.344 105.24 53.764C105.016 54.184 104.904 54.6647 104.904 55.206V55.36C104.904 55.92 105.025 56.4147 105.268 56.844C105.52 57.264 105.865 57.5953 106.304 57.838C106.752 58.0713 107.261 58.188 107.83 58.188C108.278 58.188 108.693 58.1087 109.076 57.95C109.468 57.7913 109.804 57.5487 110.084 57.222L110.644 57.866C110.317 58.258 109.907 58.5567 109.412 58.762C108.927 58.9673 108.39 59.07 107.802 59.07ZM114.49 59L111.718 51.65H112.67L115.19 58.468H114.756L117.346 51.65H118.2L120.762 58.468H120.328L122.89 51.65H123.8L121.014 59H120.076L117.612 52.588H117.906L115.428 59H114.49ZM129.171 59V49.2H130.207V59H129.171ZM137.68 59.084C136.942 59.084 136.256 58.9627 135.622 58.72C134.996 58.468 134.45 58.118 133.984 57.67C133.526 57.2127 133.167 56.6853 132.906 56.088C132.654 55.4813 132.528 54.8187 132.528 54.1C132.528 53.3813 132.654 52.7233 132.906 52.126C133.167 51.5193 133.526 50.992 133.984 50.544C134.45 50.0867 134.996 49.7367 135.622 49.494C136.247 49.242 136.933 49.116 137.68 49.116C138.417 49.116 139.098 49.242 139.724 49.494C140.349 49.7367 140.89 50.082 141.348 50.53C141.814 50.978 142.174 51.5053 142.426 52.112C142.687 52.7187 142.818 53.3813 142.818 54.1C142.818 54.8187 142.687 55.4813 142.426 56.088C142.174 56.6947 141.814 57.222 141.348 57.67C140.89 58.118 140.349 58.468 139.724 58.72C139.098 58.9627 138.417 59.084 137.68 59.084ZM137.68 58.16C138.268 58.16 138.809 58.062 139.304 57.866C139.808 57.6607 140.242 57.376 140.606 57.012C140.979 56.6387 141.268 56.2093 141.474 55.724C141.679 55.2293 141.782 54.688 141.782 54.1C141.782 53.512 141.679 52.9753 141.474 52.49C141.268 51.9953 140.979 51.566 140.606 51.202C140.242 50.8287 139.808 50.544 139.304 50.348C138.809 50.1427 138.268 50.04 137.68 50.04C137.092 50.04 136.546 50.1427 136.042 50.348C135.538 50.544 135.099 50.8287 134.726 51.202C134.362 51.566 134.072 51.9953 133.858 52.49C133.652 52.9753 133.55 53.512 133.55 54.1C133.55 54.6787 133.652 55.2153 133.858 55.71C134.072 56.2047 134.362 56.6387 134.726 57.012C135.099 57.376 135.538 57.6607 136.042 57.866C136.546 58.062 137.092 58.16 137.68 58.16ZM145.14 59V49.2H145.994L152.756 57.712H152.308V49.2H153.33V59H152.476L145.728 50.488H146.176V59H145.14ZM156.529 59V49.2H157.565V59H156.529ZM165.037 59.084C164.3 59.084 163.614 58.9627 162.979 58.72C162.354 58.468 161.808 58.118 161.341 57.67C160.884 57.2127 160.525 56.6853 160.263 56.088C160.011 55.4813 159.885 54.8187 159.885 54.1C159.885 53.3813 160.011 52.7233 160.263 52.126C160.525 51.5193 160.884 50.992 161.341 50.544C161.808 50.0867 162.354 49.7367 162.979 49.494C163.605 49.242 164.291 49.116 165.037 49.116C165.775 49.116 166.456 49.242 167.081 49.494C167.707 49.7367 168.248 50.082 168.705 50.53C169.172 50.978 169.531 51.5053 169.783 52.112C170.045 52.7187 170.175 53.3813 170.175 54.1C170.175 54.8187 170.045 55.4813 169.783 56.088C169.531 56.6947 169.172 57.222 168.705 57.67C168.248 58.118 167.707 58.468 167.081 58.72C166.456 58.9627 165.775 59.084 165.037 59.084ZM168.243 60.946C167.945 60.946 167.655 60.9087 167.375 60.834C167.095 60.7593 166.811 60.638 166.521 60.47C166.241 60.3113 165.952 60.1013 165.653 59.84C165.355 59.5787 165.028 59.2613 164.673 58.888L165.807 58.608C166.097 58.9533 166.377 59.238 166.647 59.462C166.927 59.686 167.198 59.8493 167.459 59.952C167.73 60.064 167.996 60.12 168.257 60.12C168.985 60.12 169.606 59.8213 170.119 59.224L170.623 59.826C170.007 60.5727 169.214 60.946 168.243 60.946ZM165.037 58.16C165.625 58.16 166.167 58.062 166.661 57.866C167.165 57.6607 167.599 57.3713 167.963 56.998C168.337 56.6247 168.626 56.1953 168.831 55.71C169.037 55.2153 169.139 54.6787 169.139 54.1C169.139 53.512 169.037 52.9753 168.831 52.49C168.626 51.9953 168.337 51.566 167.963 51.202C167.599 50.8287 167.165 50.544 166.661 50.348C166.167 50.1427 165.625 50.04 165.037 50.04C164.449 50.04 163.903 50.1427 163.399 50.348C162.895 50.544 162.457 50.8287 162.083 51.202C161.719 51.566 161.43 51.9953 161.215 52.49C161.01 52.9753 160.907 53.512 160.907 54.1C160.907 54.6787 161.01 55.2153 161.215 55.71C161.43 56.1953 161.719 56.6247 162.083 56.998C162.457 57.3713 162.895 57.6607 163.399 57.866C163.903 58.062 164.449 58.16 165.037 58.16ZM178.387 59.084C177.687 59.084 177.02 58.972 176.385 58.748C175.751 58.5147 175.247 58.2067 174.873 57.824L175.363 57.026C175.671 57.3527 176.091 57.6233 176.623 57.838C177.165 58.0527 177.748 58.16 178.373 58.16C179.204 58.16 179.834 57.978 180.263 57.614C180.702 57.2407 180.921 56.7553 180.921 56.158C180.921 55.738 180.819 55.3787 180.613 55.08C180.417 54.772 180.081 54.534 179.605 54.366C179.129 54.198 178.476 54.114 177.645 54.114H175.559L176.063 49.2H181.425V50.096H176.469L176.987 49.606L176.553 53.722L176.035 53.218H177.869C178.859 53.218 179.652 53.3393 180.249 53.582C180.847 53.8247 181.276 54.1653 181.537 54.604C181.808 55.0333 181.943 55.5373 181.943 56.116C181.943 56.6667 181.813 57.1707 181.551 57.628C181.29 58.076 180.898 58.4307 180.375 58.692C179.853 58.9533 179.19 59.084 178.387 59.084Z" fill="#F6FCFC"/>
<path d="M49.3516 74.4141V94.2109H45.2227V78.3242H45.1133L40.5742 81.168V77.5312L45.4688 74.4141H49.3516ZM61.6289 94.4844C56.6797 94.4844 53.6719 90.793 53.6719 84.3125C53.6719 77.832 56.6797 74.1406 61.6289 74.1406C66.5781 74.1406 69.5859 77.8594 69.5859 84.3125C69.5859 90.8203 66.5781 94.4844 61.6289 94.4844ZM61.6289 91.0938C63.9258 91.0938 65.4023 88.8789 65.375 84.3125C65.375 79.8008 63.9258 77.5039 61.6289 77.5039C59.332 77.5039 57.8828 79.8008 57.8828 84.3125C57.8555 88.8789 59.332 91.0938 61.6289 91.0938ZM77.625 84.3125C74.6719 84.3125 73.0586 82.1523 73.0586 79.0352C73.0586 75.8906 74.7266 73.7305 77.625 73.7305C80.6055 73.7305 82.1641 75.8906 82.1914 79.0352C82.1641 82.1797 80.5508 84.3125 77.625 84.3125ZM77.625 81.8789C78.8008 81.8789 79.375 80.7305 79.4023 79.0352C79.375 77.3398 78.8555 76.1641 77.625 76.1641C76.4492 76.1641 75.8477 77.3672 75.8477 79.0352C75.8477 80.7305 76.4766 81.8789 77.625 81.8789ZM90.9688 94.8672C88.043 94.8672 86.4297 92.707 86.4297 89.5898C86.4297 86.4453 88.0977 84.2852 90.9688 84.2852C93.9492 84.2852 95.5352 86.4453 95.5625 89.5898C95.5352 92.7344 93.9219 94.8672 90.9688 94.8672ZM90.9688 92.4336C92.1719 92.4336 92.7461 91.3125 92.7734 89.5898C92.7461 87.8945 92.2266 86.7188 90.9688 86.7461C89.8203 86.7461 89.2188 87.9219 89.2188 89.5898C89.2188 91.3125 89.8477 92.4336 90.9688 92.4336ZM75.9023 94.2109L89.5195 74.4141H92.582L78.9648 94.2109H75.9023ZM124.684 71.7891V77.2031H128.047V79.9922H124.684V85.2695H121.184V71.7891H124.684ZM124.684 86.2812V92.5703H111.641V93.9922H125.395V96.5625H108.223V90.1914H121.211V88.7969H108.168V86.2812H124.684ZM119.707 73.7031V76.3555H104.941V73.7031H110.602V71.6797H114.074V73.7031H119.707ZM112.324 76.957C116.043 76.957 118.449 78.543 118.449 81.0312C118.449 83.5742 116.043 85.1055 112.324 85.1055C108.605 85.1055 106.145 83.5742 106.145 81.0312C106.145 78.543 108.605 76.957 112.324 76.957ZM112.324 79.418C110.602 79.418 109.535 79.9922 109.562 81.0312C109.535 82.0977 110.602 82.6172 112.324 82.6172C114.047 82.6172 115.141 82.0977 115.141 81.0312C115.141 79.9922 114.047 79.418 112.324 79.418ZM149.977 71.8711V89.7539H146.477V71.8711H149.977ZM150.633 93.5V96.2891H133.297V87.9492H136.824V93.5H150.633ZM136.332 73.457C140.16 73.457 143.141 76.082 143.141 79.7188C143.141 83.4375 140.16 86.0352 136.332 86.0352C132.504 86.0352 129.523 83.4375 129.523 79.7188C129.523 76.082 132.504 73.457 136.332 73.457ZM136.332 76.4922C134.391 76.4648 132.914 77.6953 132.941 79.7188C132.914 81.7969 134.391 83 136.332 83C138.219 83 139.695 81.7969 139.695 79.7188C139.695 77.6953 138.219 76.4648 136.332 76.4922ZM179.973 73.2383V75.4805C179.945 78.0645 179.945 80.9355 179.125 84.9688H182.488V87.7852H172.891V96.6719H169.391V87.7852H159.793V84.9688H175.707C176.008 83.6426 176.213 82.4258 176.336 81.3047L162.062 82.0156L161.652 79.0352L176.582 78.625C176.609 77.6953 176.623 76.834 176.637 76H162.445V73.2383H179.973ZM204.664 72.7461V75.5625H201.41V79.8555H204.5V82.5625H197.062V84.8867H206.688V87.6211H183.992V84.8867H193.562V82.5625H186.152V79.8555H189.215V75.5625H185.988V72.7461H204.664ZM204.117 93.5V96.2891H186.727V89.2344H190.227V93.5H204.117ZM192.715 79.8555H197.91V75.5625H192.715V79.8555Z" fill="#F6FCFC"/>
<path d="M10.8574 49V8H45.8574L10.8574 49Z" fill="#F4FBFC" fill-opacity="0.4"/>
<path d="M235.857 102V143H200.857L235.857 102Z" fill="#F4FBFC" fill-opacity="0.4"/>
<defs>
<filter id="filter0_d_2226_10188" x="0.857422" y="0" width="245" height="155" filterUnits="userSpaceOnUse" color-interpolation-filters="sRGB">
<feFlood flood-opacity="0" result="BackgroundImageFix"/>
<feColorMatrix in="SourceAlpha" type="matrix" values="0 0 0 0 0 0 0 0 0 0 0 0 0 0 0 0 0 0 127 0" result="hardAlpha"/>
<feOffset dy="2"/>
<feGaussianBlur stdDeviation="5"/>
<feComposite in2="hardAlpha" operator="out"/>
<feColorMatrix type="matrix" values="0 0 0 0 0 0 0 0 0 0 0 0 0 0 0 0 0 0 0.1 0"/>
<feBlend mode="normal" in2="BackgroundImageFix" result="effect1_dropShadow_2226_10188"/>
<feBlend mode="normal" in="SourceGraphic" in2="effect1_dropShadow_2226_10188" result="shape"/>
</filter>
</defs>
</svg>
