<svg width="79" height="80" viewBox="0 0 79 80" fill="none" xmlns="http://www.w3.org/2000/svg">
<circle cx="39.5" cy="40" r="39.5" fill="url(#paint0_angular_2289_12658)"/>
<g clip-path="url(#clip0_2289_12658)">
<g filter="url(#filter0_d_2289_12658)">
<path d="M57.0586 40.4707C57.0586 52.2246 49.7373 58.998 40.2246 58.998C30.6123 58.998 23.3408 52.1748 23.3408 40.4707C23.3408 28.7168 30.6123 21.9434 40.2246 21.9434C49.7373 21.9434 57.0586 28.7168 57.0586 40.4707ZM49.4385 40.4707C49.4385 32.751 45.8027 28.5674 40.2246 28.5674C34.6465 28.5674 30.9609 32.751 30.9609 40.4707C30.9609 48.1904 34.6465 52.374 40.2246 52.374C45.8027 52.374 49.4385 48.1904 49.4385 40.4707Z" fill="url(#paint1_linear_2289_12658)"/>
</g>
</g>
<defs>
<filter id="filter0_d_2289_12658" x="20.6408" y="19.2434" width="43.1178" height="46.4547" filterUnits="userSpaceOnUse" color-interpolation-filters="sRGB">
<feFlood flood-opacity="0" result="BackgroundImageFix"/>
<feColorMatrix in="SourceAlpha" type="matrix" values="0 0 0 0 0 0 0 0 0 0 0 0 0 0 0 0 0 0 127 0" result="hardAlpha"/>
<feOffset dx="2" dy="2"/>
<feGaussianBlur stdDeviation="2.35"/>
<feComposite in2="hardAlpha" operator="out"/>
<feColorMatrix type="matrix" values="0 0 0 0 0.575031 0 0 0 0 0.762516 0 0 0 0 0.805957 0 0 0 0.28 0"/>
<feBlend mode="normal" in2="BackgroundImageFix" result="effect1_dropShadow_2289_12658"/>
<feBlend mode="normal" in="SourceGraphic" in2="effect1_dropShadow_2289_12658" result="shape"/>
</filter>
<radialGradient id="paint0_angular_2289_12658" cx="0" cy="0" r="1" gradientUnits="userSpaceOnUse" gradientTransform="translate(39.5 40) rotate(-24.7108) scale(62.1953)">
<stop stop-color="white"/>
<stop offset="1" stop-color="#BBE0E6"/>
</radialGradient>
<linearGradient id="paint1_linear_2289_12658" x1="40.5" y1="9.5" x2="40.5" y2="70.5" gradientUnits="userSpaceOnUse">
<stop offset="0.445" stop-color="#55A7BA"/>
<stop offset="1" stop-color="#BBE0E6"/>
</linearGradient>
<clipPath id="clip0_2289_12658">
<rect width="48" height="48" fill="white" transform="translate(16 15.5)"/>
</clipPath>
</defs>
</svg>
